<svg width="8" height="8" viewBox="0 0 8 8" fill="none" xmlns="http://www.w3.org/2000/svg">
<path d="M4.02247 0.965332C3.8629 0.965233 3.7033 1.04831 3.62123 1.21456L2.84032 2.79689L1.09412 3.05063C0.727392 3.10392 0.58096 3.55459 0.846325 3.81325L2.10989 5.04491L1.8116 6.78408C1.76201 7.07317 1.99186 7.30795 2.25251 7.30776C2.32136 7.30779 2.39238 7.29146 2.46098 7.25539L4.0225 6.43444L5.58402 7.25539C5.91203 7.42784 6.29538 7.14932 6.23276 6.78408L5.93445 5.04491L7.19804 3.81325C7.46339 3.55459 7.31697 3.10392 6.95024 3.05063L5.20405 2.79689L4.42311 1.21456C4.34121 1.04859 4.18177 0.965514 4.02247 0.965332ZM4.0227 5.93104V1.52575L4.77013 3.04017C4.83524 3.17213 4.96112 3.26359 5.10675 3.28475L6.77918 3.52777L5.56899 4.70743C5.46364 4.81013 5.41555 4.95811 5.44042 5.10317L5.7261 6.76885L4.23022 5.98241C4.16528 5.94826 4.09401 5.93114 4.0227 5.93104Z" fill="#F79300"/>
</svg>
