<svg width="9" height="9" viewBox="0 0 9 9" fill="none" xmlns="http://www.w3.org/2000/svg">
<path d="M1.70119 1.1721C3.15362 -0.27742 5.50849 -0.27742 6.96091 1.1721C8.41334 2.62163 8.41334 4.97179 6.96091 6.42131L6.45391 6.92172C6.08021 7.28772 5.59537 7.75834 4.99913 8.3336C4.62659 8.69312 4.03552 8.69308 3.66302 8.33352L2.17184 6.88591C1.98443 6.70227 1.82756 6.5474 1.70119 6.42131C0.248767 4.97179 0.248767 2.62163 1.70119 1.1721ZM6.50785 1.62424C5.30564 0.424423 3.35645 0.424423 2.15424 1.62424C0.952016 2.82406 0.952016 4.76935 2.15424 5.96916L2.78941 6.59472C3.1392 6.93634 3.57892 7.36279 4.10843 7.8739C4.2326 7.99373 4.4296 7.99377 4.55381 7.87394L6.00388 6.46658C6.20416 6.27037 6.3722 6.10454 6.50785 5.96916C7.71006 4.76935 7.71006 2.82406 6.50785 1.62424ZM4.33106 2.63452C5.03911 2.63452 5.61309 3.20737 5.61309 3.91402C5.61309 4.62066 5.03911 5.1935 4.33106 5.1935C3.623 5.1935 3.04899 4.62066 3.04899 3.91402C3.04899 3.20737 3.623 2.63452 4.33106 2.63452ZM4.33106 3.27394C3.97683 3.27394 3.68967 3.56051 3.68967 3.91402C3.68967 4.26754 3.97683 4.55408 4.33106 4.55408C4.68528 4.55408 4.9724 4.26754 4.9724 3.91402C4.9724 3.56051 4.68528 3.27394 4.33106 3.27394Z" fill="#4A4A4A"/>
</svg>
